<svg width="180" height="180" viewBox="0 0 180 180" fill="none" xmlns="http://www.w3.org/2000/svg">
<circle cx="90" cy="90" r="90" fill="#EFEFEF"/>
<path fill-rule="evenodd" clip-rule="evenodd" d="M113.385 64H66C64.8954 64 64 64.8954 64 66V97.1641L82.8084 92.7755C83.7023 92.5669 84.6172 92.4616 85.5351 92.4616H93.8492C94.7671 92.4616 95.682 92.5669 96.5759 92.7755L115.385 97.1642V66C115.385 64.8954 114.489 64 113.385 64ZM114.615 114.615H114.961C114.86 114.744 114.744 114.86 114.615 114.961V114.615ZM64.7693 114.615H64.4234C64.5242 114.744 64.6404 114.861 64.7693 114.961V114.615ZM66 62C63.7909 62 62 63.7909 62 66V113.385C62 115.594 63.7909 117.385 66 117.385H113.385C115.594 117.385 117.385 115.594 117.385 113.385V66C117.385 63.7909 115.594 62 113.385 62H66ZM77.105 82.1399C79.8858 82.1399 82.14 79.8857 82.14 77.1049C82.14 74.3242 79.8858 72.07 77.105 72.07C74.3243 72.07 72.0701 74.3242 72.0701 77.1049C72.0701 79.8857 74.3243 82.1399 77.105 82.1399Z" fill="#CDCDCD"/>
</svg>
